<svg width="80" height="17" viewBox="0 0 80 17" fill="none" xmlns="http://www.w3.org/2000/svg">
<path d="M0 16.7071V0H2.38598L10.9039 12.8167V0H13.2899V16.7071H10.9039L2.38598 3.91422V16.7071H0Z" fill="#0C2849" style="fill:#0C2849;fill:color(display-p3 0.0482 0.1574 0.2862);fill-opacity:1;"/>
<path d="M20.6655 16.9935C19.5203 16.9935 18.5023 16.7309 17.6115 16.2058C16.7207 15.6808 16.0208 14.9488 15.5118 14.0101C15.0187 13.0713 14.7722 11.9813 14.7722 10.7402C14.7722 9.46733 15.0187 8.36148 15.5118 7.42271C16.0208 6.46802 16.7207 5.72813 17.6115 5.20305C18.5023 4.66206 19.5362 4.39157 20.7133 4.39157C21.8904 4.39157 22.9004 4.65411 23.7435 5.17919C24.5865 5.70427 25.2387 6.40437 25.7 7.2795C26.1613 8.13872 26.3919 9.09341 26.3919 10.1436C26.3919 10.3027 26.3839 10.4777 26.368 10.6686C26.368 10.8437 26.3601 11.0426 26.3442 11.2653H16.5139V9.57076H24.0059C23.9582 8.56833 23.6242 7.78867 23.0038 7.23177C22.3835 6.65896 21.612 6.37255 20.6894 6.37255C20.0372 6.37255 19.4407 6.52371 18.8999 6.82603C18.3591 7.11243 17.9217 7.54204 17.5876 8.11486C17.2695 8.67176 17.1104 9.37982 17.1104 10.239V10.9073C17.1104 11.7984 17.2695 12.5542 17.5876 13.1747C17.9217 13.7793 18.3591 14.2408 18.8999 14.559C19.4407 14.8613 20.0293 15.0125 20.6655 15.0125C21.4291 15.0125 22.0574 14.8454 22.5505 14.5113C23.0436 14.1771 23.4094 13.7237 23.648 13.1508H26.034C25.8272 13.8828 25.4773 14.5431 24.9842 15.1318C24.4911 15.7046 23.8787 16.1581 23.147 16.4923C22.4312 16.8264 21.604 16.9935 20.6655 16.9935Z" fill="#0C2849" style="fill:#0C2849;fill:color(display-p3 0.0482 0.1574 0.2862);fill-opacity:1;"/>
<path d="M32.0252 16.9935C31.0867 16.9935 30.2676 16.8025 29.5677 16.4206C28.8837 16.0388 28.3508 15.466 27.9691 14.7022C27.6032 13.9385 27.4203 12.9758 27.4203 11.8143V4.67798H29.8063V11.5517C29.8063 12.6814 30.0528 13.5327 30.5459 14.1055C31.039 14.6783 31.7469 14.9647 32.6694 14.9647C33.2898 14.9647 33.8465 14.8136 34.3396 14.5113C34.8486 14.209 35.2463 13.7714 35.5326 13.1986C35.8189 12.6258 35.9621 11.9257 35.9621 11.0983V4.67798H38.3481V16.7071H36.2245L36.0575 14.6545C35.6917 15.3864 35.1588 15.9592 34.4589 16.3729C33.759 16.7866 32.9478 16.9935 32.0252 16.9935Z" fill="#0C2849" style="fill:#0C2849;fill:color(display-p3 0.0482 0.1574 0.2862);fill-opacity:1;"/>
<path d="M45.1461 16.7071C44.3825 16.7071 43.7224 16.5877 43.1657 16.349C42.609 16.1104 42.1795 15.7126 41.8773 15.1557C41.575 14.5988 41.4239 13.843 41.4239 12.8883V6.70669H39.3481V4.67798H41.4239L41.7102 1.67071H43.8099V4.67798H47.2219V6.70669H43.8099V12.9122C43.8099 13.5964 43.9531 14.0657 44.2394 14.3203C44.5257 14.559 45.0188 14.6783 45.7187 14.6783H47.1026V16.7071H45.1461Z" fill="#0C2849" style="fill:#0C2849;fill:color(display-p3 0.0482 0.1574 0.2862);fill-opacity:1;"/>
<path d="M48.4214 16.7071V4.67798H50.5687L50.7835 6.94536C51.0539 6.40437 51.4038 5.95089 51.8333 5.58493C52.2628 5.20305 52.7638 4.90869 53.3365 4.70184C53.925 4.49499 54.5931 4.39157 55.3407 4.39157V6.92149H54.4818C53.9887 6.92149 53.5194 6.98514 53.074 7.11243C52.6286 7.22381 52.231 7.42271 51.881 7.70911C51.547 7.99552 51.2845 8.38535 51.0937 8.87861C50.9028 9.37186 50.8073 9.98445 50.8073 10.7164V16.7071H48.4214Z" fill="#0C2849" style="fill:#0C2849;fill:color(display-p3 0.0482 0.1574 0.2862);fill-opacity:1;"/>
<path d="M61.1908 16.9935C60.0456 16.9935 59.0275 16.7309 58.1368 16.2058C57.246 15.6808 56.5461 14.9488 56.0371 14.0101C55.544 13.0713 55.2975 11.9813 55.2975 10.7402C55.2975 9.46733 55.544 8.36148 56.0371 7.42271C56.5461 6.46802 57.246 5.72813 58.1368 5.20305C59.0275 4.66206 60.0615 4.39157 61.2385 4.39157C62.4156 4.39157 63.4257 4.65411 64.2687 5.17919C65.1118 5.70427 65.7639 6.40437 66.2252 7.2795C66.6865 8.13872 66.9172 9.09341 66.9172 10.1436C66.9172 10.3027 66.9092 10.4777 66.8933 10.6686C66.8933 10.8437 66.8854 11.0426 66.8695 11.2653H57.0392V9.57076H64.5312C64.4835 8.56833 64.1494 7.78867 63.5291 7.23177C62.9087 6.65896 62.1373 6.37255 61.2147 6.37255C60.5625 6.37255 59.966 6.52371 59.4252 6.82603C58.8844 7.11243 58.4469 7.54204 58.1129 8.11486C57.7948 8.67176 57.6357 9.37982 57.6357 10.239V10.9073C57.6357 11.7984 57.7948 12.5542 58.1129 13.1747C58.4469 13.7793 58.8844 14.2408 59.4252 14.559C59.966 14.8613 60.5546 15.0125 61.1908 15.0125C61.9543 15.0125 62.5826 14.8454 63.0757 14.5113C63.5688 14.1771 63.9347 13.7237 64.1733 13.1508H66.5593C66.3525 13.8828 66.0025 14.5431 65.5094 15.1318C65.0163 15.7046 64.4039 16.1581 63.6722 16.4923C62.9564 16.8264 62.1293 16.9935 61.1908 16.9935Z" fill="#0C2849" style="fill:#0C2849;fill:color(display-p3 0.0482 0.1574 0.2862);fill-opacity:1;"/>
<path d="M73.5765 16.9935C72.4312 16.9935 71.4132 16.7309 70.5224 16.2058C69.6317 15.6808 68.9318 14.9488 68.4228 14.0101C67.9297 13.0713 67.6831 11.9813 67.6831 10.7402C67.6831 9.46733 67.9297 8.36148 68.4228 7.42271C68.9318 6.46802 69.6317 5.72813 70.5224 5.20305C71.4132 4.66206 72.4471 4.39157 73.6242 4.39157C74.8013 4.39157 75.8113 4.65411 76.6544 5.17919C77.4974 5.70427 78.1496 6.40437 78.6109 7.2795C79.0722 8.13872 79.3028 9.09341 79.3028 10.1436C79.3028 10.3027 79.2949 10.4777 79.279 10.6686C79.279 10.8437 79.271 11.0426 79.2551 11.2653H69.4249V9.57076H76.9168C76.8691 8.56833 76.5351 7.78867 75.9147 7.23177C75.2944 6.65896 74.5229 6.37255 73.6003 6.37255C72.9482 6.37255 72.3517 6.52371 71.8109 6.82603C71.27 7.11243 70.8326 7.54204 70.4986 8.11486C70.1804 8.67176 70.0214 9.37982 70.0214 10.239V10.9073C70.0214 11.7984 70.1804 12.5542 70.4986 13.1747C70.8326 13.7793 71.27 14.2408 71.8109 14.559C72.3517 14.8613 72.9402 15.0125 73.5765 15.0125C74.34 15.0125 74.9683 14.8454 75.4614 14.5113C75.9545 14.1771 76.3204 13.7237 76.5589 13.1508H78.9449C78.7381 13.8828 78.3882 14.5431 77.8951 15.1318C77.402 15.7046 76.7896 16.1581 76.0579 16.4923C75.3421 16.8264 74.515 16.9935 73.5765 16.9935Z" fill="#0C2849" style="fill:#0C2849;fill:color(display-p3 0.0482 0.1574 0.2862);fill-opacity:1;"/>
</svg>
