<svg width="160" height="160" viewBox="0 0 160 160" fill="none" xmlns="http://www.w3.org/2000/svg">
<rect width="160" height="160" rx="8" fill="white" style="fill:white;fill-opacity:1;"/>
<path fill-rule="evenodd" clip-rule="evenodd" d="M80.0526 3C86.9153 3.00027 92.479 8.56366 92.479 15.4264C92.479 17.0702 92.1557 18.638 91.576 20.0742L125.495 39.6573C127.732 37.4899 130.779 36.1542 134.14 36.1542C141.003 36.1545 146.566 41.7179 146.566 48.5806C146.566 54.3398 142.647 59.1812 137.332 60.5904V99.9487C142.258 101.599 145.809 106.249 145.809 111.731C145.809 118.594 140.245 124.157 133.383 124.157C129.823 124.157 126.615 122.658 124.35 120.26L91.6589 139.135C92.1864 140.514 92.479 142.009 92.479 143.574C92.479 150.436 86.9153 156 80.0526 156C73.1897 156 67.6262 150.437 67.6262 143.574C67.6262 142.051 67.9005 140.592 68.4019 139.243L34.8694 119.883C32.6527 121.937 29.6873 123.196 26.4264 123.196C19.5635 123.196 14 117.632 14 110.769C14 105.263 17.582 100.596 22.5421 98.9648V58.8753C17.8721 57.0881 14.5552 52.5675 14.5552 47.269C14.5552 40.4061 20.1187 34.8426 26.9816 34.8426C30.5323 34.8428 33.7325 36.3347 35.997 38.7229L68.4848 19.966C67.9324 18.5594 67.6262 17.029 67.6262 15.4264C67.6262 8.56349 73.1897 3 80.0526 3ZM79.8393 139.437C77.6505 139.547 75.9105 141.357 75.9105 143.574C75.9105 145.861 77.765 147.716 80.0526 147.716C82.34 147.715 84.1948 145.861 84.1948 143.574C84.1948 143.525 84.1914 143.476 84.1897 143.428C84.1227 141.488 82.7236 139.887 80.8778 139.513C80.7036 139.478 80.5253 139.455 80.3439 139.443C80.3163 139.441 80.2887 139.438 80.261 139.437L80.0526 139.431C79.9813 139.431 79.9098 139.433 79.8393 139.437ZM123.362 54.7635C115.867 80.4218 102.114 100.783 84.0795 114.814L84.0785 131.818C84.8023 132.066 85.496 132.377 86.1526 132.748L120.988 112.636C120.966 112.337 120.956 112.035 120.956 111.731C120.956 106.392 124.322 101.841 129.048 100.082V59.9149C126.653 58.8374 124.663 57.0256 123.362 54.7635ZM39.3726 46.3397C39.3953 46.6465 39.408 46.9564 39.408 47.269C39.408 50.2434 38.3608 52.9723 36.6179 55.1114C40.2568 70.1732 45.4107 84.6138 51.8344 97.2315C58.6247 110.569 66.7336 121.673 75.7952 129.381V81.5913C64.564 72.1145 55.1918 57.7463 49.7279 40.3621L39.3726 46.3397ZM30.8264 99.1468C35.5172 100.924 38.8528 105.456 38.8528 110.769C38.8528 111.372 38.8083 111.964 38.7254 112.544L59.6454 124.623C53.9705 117.723 48.8905 109.708 44.4522 100.99C38.9537 90.19 34.3756 78.1927 30.8264 65.671V99.1468ZM133.169 107.594C130.98 107.705 129.24 109.515 129.24 111.731C129.24 113.62 130.507 115.212 132.235 115.71C132.599 115.815 132.984 115.873 133.383 115.873C135.67 115.873 137.525 114.018 137.525 111.731C137.525 111.295 137.456 110.875 137.332 110.481L137.219 110.173C136.604 108.658 135.119 107.589 133.383 107.589C133.311 107.589 133.24 107.59 133.169 107.594ZM26.4254 106.628C24.657 106.628 23.1484 107.737 22.5543 109.297C22.3802 109.754 22.2843 110.251 22.2843 110.769C22.2843 111.399 22.4259 111.996 22.6776 112.531C22.7449 112.674 22.8196 112.812 22.9021 112.945C23.6321 114.125 24.9372 114.911 26.4264 114.911C27.347 114.911 28.1971 114.61 28.8848 114.102C28.9591 114.047 29.0318 113.99 29.1022 113.93C29.1896 113.856 29.274 113.779 29.355 113.698C30.1038 112.948 30.5675 111.913 30.5675 110.77C30.5675 108.483 28.7128 106.628 26.4254 106.628ZM101.893 35.596C100.411 38.3786 98.6638 40.8322 96.5453 42.9267C93.1539 46.2794 89.0342 48.4951 84.0795 49.8184L84.0785 104.025C99.8179 89.9086 111.65 69.8799 117.458 44.5821L101.893 35.596ZM57.0929 36.1098C61.1731 49.9896 67.8649 61.651 75.7952 70.16V27.1034C75.1936 26.8841 74.614 26.6193 74.0599 26.3136L57.0929 36.1098ZM134.14 44.4385C134.026 44.4385 133.912 44.4436 133.8 44.4527L133.801 44.4537C132.154 44.5866 130.779 45.6832 130.241 47.179C130.201 47.2895 130.166 47.4022 130.135 47.5168C130.133 47.5276 130.129 47.5383 130.126 47.5492C130.042 47.8789 129.998 48.2246 129.998 48.5806C129.998 50.8683 131.852 52.7228 134.14 52.7228C134.196 52.7228 134.252 52.7209 134.307 52.7187C134.851 52.6969 135.368 52.5699 135.838 52.3577C135.896 52.3315 135.954 52.3046 136.011 52.2758C136.511 52.0217 136.952 51.6689 137.309 51.2433C137.915 50.5231 138.282 49.5953 138.282 48.5806C138.282 46.2932 136.427 44.4388 134.14 44.4385ZM26.9816 43.1269C24.9226 43.1269 23.215 44.6293 22.8941 46.5976C22.8586 46.8162 22.8394 47.0404 22.8394 47.269C22.8394 49.4853 24.5795 51.2953 26.7682 51.4061C26.8387 51.4097 26.9102 51.4112 26.9816 51.4112C27.0528 51.4112 27.1236 51.4097 27.1939 51.4061C29.3827 51.2953 31.1237 49.4853 31.1237 47.269C31.1237 45.3721 29.848 43.7735 28.1081 43.2826C27.7499 43.1816 27.3721 43.1269 26.9816 43.1269ZM85.9261 26.3774C85.3375 26.6937 84.7201 26.9619 84.0795 27.1813V41.1428C86.8196 40.1448 88.9578 38.7776 90.7205 37.0351C92.2062 35.5661 93.5205 33.7365 94.7109 31.4488L85.9261 26.3774ZM80.0526 11.2843C77.765 11.2843 75.9105 13.1388 75.9105 15.4264C75.9105 15.9965 76.0247 16.54 76.2331 17.0343C76.318 17.2356 76.4192 17.4282 76.5334 17.6117C76.5921 17.7059 76.6538 17.7979 76.7195 17.8868C76.7304 17.9015 76.7418 17.9157 76.7529 17.9303C76.8597 18.0708 76.9752 18.2041 77.0987 18.3297C77.8503 19.094 78.8961 19.5685 80.0526 19.5685C82.2132 19.5683 83.9865 17.9137 84.1766 15.8026C84.1877 15.6787 84.1948 15.5532 84.1948 15.4264C84.1948 13.1389 82.34 11.2845 80.0526 11.2843Z" fill="#0C2849" style="fill:#0C2849;fill:color(display-p3 0.0482 0.1574 0.2862);fill-opacity:1;"/>
</svg>
